<svg aria-hidden="true" style="position: absolute; width: 0; height: 0; overflow: hidden;" version="1.1"
  xmlns="http://www.w3.org/2000/svg" xmlns:xlink="http://www.w3.org/1999/xlink">
    <symbol id="icon-wf-logo" viewBox="0 0 32 32">
      <path d="M1997.3 591.5a115.4 115.4 0 0 0-16.2 22.3c-2.4 4-4.7 7.5-5.2 7.8-.4.2-3.9-5.7-7.6-13.2-7.1-14.4-9.3-16.7-14.8-15.6-3.4.6-4.9 2.7-8.3 11.2a870 870 0 0 1-6.5 15.3l-3.4 7.9-8.9-8.5c-17.2-16.3-19.1-17.7-23.4-17.7-3.1 0-4.3.5-5.6 2.6-1.6 2.4-1.6 3.2 1.3 17l3.1 14.5-6.6 3.1a109.3 109.3 0 0 0-25.6 18.7l-4 4.1-3-2.4a113 113 0 0 0-44.6-18.9 220.5 220.5 0 0 0-53-4.9c-39.5-.1-59.7 4.6-79.5 18.4-14.2 9.9-12.1 9.4-20 4.1-25.5-17.1-53.1-23.3-93.5-21.2-29.8 1.6-45.6 6.2-64.8 19l-7.5 4.9c-.1 0-3.7-3.3-7.8-7.4-13.1-12.8-27.9-18.2-53.4-19.3-15.7-.6-20.6.2-34.3 5.9-5.9 2.4-9 4.5-13.2 8.8l-5.5 5.7-4.8-3.9a87.2 87.2 0 0 0-26.7-13.9 48 48 0 0 0-21.5-3.3c-18.7 0-34.2 5-51.8 16.8l-2.8 1.9-3.7-3c-25.6-20.6-64-18.1-91.7 6l-4 3.5-6.1-5.4a65 65 0 0 0-39.1-17.4 76 76 0 0 0-35.9 4.1c-10 3.5-15 6.4-21.7 12.6l-4.7 4.4-7.5-6.9a56.5 56.5 0 0 0-42.4-16.4c-18 .2-25.9 3.3-40.5 15.9l-8.7 7.4-5.5-5.1a79.2 79.2 0 0 0-26.9-15.2 62 62 0 0 0-21-2.3c-13.1 0-14.3.2-19.7 2.7a59.9 59.9 0 0 0-9.1 5.2 14 14 0 0 1-4.6 2.6c-.6 0-4.6-2-8.8-4.5a53.8 53.8 0 0 0-33.3-9 43.5 43.5 0 0 0-30.7 9.1 45.8 45.8 0 0 1-7.4 4.4c-.4 0-3.8-1.5-7.6-3.4-10.9-5.5-16.8-6.6-36.4-6.6-28.8 0-42.6 4.3-56.8 17.5a52.8 52.8 0 0 0-18.5 44c.1 10.4.6 14.1 3.8 27.5 2.1 8.5 6.5 27.2 9.7 41.5a1343.6 1343.6 0 0 0 17.5 69.5c5.2 19.5 9.2 31.5 13.2 39.5 8.5 17 17.4 26.3 29.4 30.7 11.5 4.3 17.9 5.1 36.5 4.6 18.9-.5 25-2 35.1-8.5 3.5-2.2 6-3.2 6.8-2.7a75.8 75.8 0 0 0 15.9 9.3c5.4 2.3 7.7 2.6 22.2 2.9 16.8.4 25.5-.7 36.3-4.6a64.5 64.5 0 0 0 28.3-22.5l5-6.8 6.6 6.4c16 15.4 44.5 25 74.6 25.1 16.4.1 22.6-1.7 33.7-9.6 2.4-1.8 2.7-1.7 10.6 1.7 11.7 5.1 23.6 7.2 47.8 8.6 30.9 1.7 41.4-.2 49.6-8.6l3.6-3.8 3.4 2.1c13.2 8.1 38.9 11.6 68.8 9.3 19.6-1.5 26.5-3.5 33.8-9.6l3.1-2.6 6.9 2.9c14.6 6.3 25.7 8.2 46.9 8.2 22.6 0 35.4-2.9 42.6-9.5l2.7-2.6 5.8 3.5c17.2 10.6 38.7 13.7 70.7 10.2 15.5-1.7 21.6-3.5 28.5-8.1 2.9-1.9 5.6-3.5 6.1-3.5a75 75 0 0 1 8.6 4c19.2 9.7 40.2 13.2 87.8 14.7 38.9 1.2 69.9-5.3 85.6-17.9l3.7-2.9 7.8 3.9c13.9 7 23 9.3 38.9 9.9 15.6.6 43.1-1 48.5-2.7 1.9-.7 4.9-1.9 6.5-2.7 2.8-1.4 3.7-1.3 11.5 1.1a115 115 0 0 0 42 6 84 84 0 0 0 24-1.8c8.7-2.4 15.7-6 20.2-10.3l3.7-3.6 8.6 4.2a95 95 0 0 0 41 9.8c30.9 1.3 55.8-5.9 70.2-20.4a48.6 48.6 0 0 0 14.2-30.1l1.8-10.7 7.6-.9c9.4-1 10.7-.6 10.7 3.6a72.7 72.7 0 0 0 39 56.8c11.9 5.9 20.2 7.4 49 9 10.7.5 24 1.4 29.5 2 5.5.5 21.2 1 34.8 1 28.7 0 35.8-1 48.1-6.9l8-3.9 4.5 2a88.4 88.4 0 0 0 37.1 6.1 77 77 0 0 0 25.4-2.7 68.2 68.2 0 0 0 29.7-15.4l5.8-5.3 4.8 3.7a81 81 0 0 0 48.8 14.6c21.1 0 39.9-6.6 56.2-19.8l4.1-3.4 8.4 4.4c12.8 6.9 23.1 9.5 56.3 14.3 18.3 2.7 60 2.4 79.3-.5a84.5 84.5 0 0 0 31.7-9.3c4.5-2.5 5.6-2.8 8.1-1.9 6.5 2.5 25.7 7 36.2 8.4 20 2.8 53.7 1.5 72.4-2.9 21.8-5 42-19.4 51.5-36.5 5.5-9.9 8.6-27.1 8.7-48 .1-14.5-.1-16-2.7-23.5-3.1-8.9-9.4-21.7-13.9-28.3l-2.9-4.3 5.2-4.7a103 103 0 0 0 19.8-25.4 65.2 65.2 0 0 0-2.1-58c-10.3-19.4-36-35.6-64.8-40.9a261.3 261.3 0 0 0-60 .5c-17.5 3.8-37.7 12-52.9 21.6l-6.4 4-4.4-3.7a76.9 76.9 0 0 0-22.8-14.4 145.3 145.3 0 0 0-58.5-10.2c-24-.2-36.3 2.2-56.9 11.1-24.8 10.8-42.1 25.5-52.8 45.2-2.1 3.9-4.1 7-4.5 7-.4 0-2.2-2.8-3.9-6.3-10.4-20.7-31.3-40.7-50.3-47.9-24.7-9.5-64-4.1-85.7 11.7-2.6 2-8.3 7.4-12.8 12-18.1 19.2-29.3 43.3-41.7 89.9-2.4 9.4-4.7 17.2-5 17.5-.2.3-2.6-.3-5.2-1.3a76.2 76.2 0 0 0-23.2-5.4l-8.5-.7-.6-32c-.7-35.1-1.6-42.6-6.8-56.1a62.5 62.5 0 0 0-41.5-37.8 94.8 94.8 0 0 0-61.9 7.2c-6.4 2.9-8.2 3.4-9.5 2.4-5-3.5-15.3-8.8-20-10.4-7.3-2.4-20.7-4.7-32-5.5-5.1-.3-9.5-1-9.8-1.5-.3-.5-1-6.8-1.5-14.1s-1.2-14.5-1.5-16c-1.2-5.8-7.4-8.5-12.1-5.2zm2.5 48c.5 10.4.7 19.4.4 19.9-.3.5-4.8.6-10.2.2a415.3 415.3 0 0 0-69.4 4.2c-.4-.4-7.6-38.1-7.6-39.4 0-.5 4.4 3.6 9.9 9 8.9 8.9 10.2 9.8 13.5 9.8 2.1 0 4.5-.7 5.6-1.7 1-.9 4.4-7.7 7.6-15.1a108 108 0 0 1 6.4-13.4c.4 0 3.1 5.1 6 11.2a89.7 89.7 0 0 0 7.4 13.5c2.3 2.7 7.1 3 10.2.9a105 105 0 0 0 10-14.2l7.9-12.8.7 4.5a378 378 0 0 1 1.6 23.4zm568.7 3.7c9.4 1.3 21.1 4.4 28.6 7.4a51.9 51.9 0 0 1 22.1 15c8.5 8.1 10.4 8.3 20.3 1.8 26.1-17.4 52-25.4 81.5-25.4 53.1.1 87.3 23.7 87.4 60.5.1 17.4-6.4 28.3-28.1 47.7-6.9 6.2-7 8.8-.9 16.4a86.8 86.8 0 0 1 18.2 41.6c1.2 13.4-2.5 38-7.1 47.5a64.2 64.2 0 0 1-32.3 26.7 99 99 0 0 1-30.4 6.1c-29.1 3.1-53.7.8-77.7-7.1-11-3.7-13.4-3.6-21.4 1.3-21.4 13-86.1 14.6-136.1 3.3-8.2-1.8-20-6.9-25.3-11a35 35 0 0 0-7.1-4.4c-3-1-8.6 1.7-11.4 5.4a64.9 64.9 0 0 1-21.6 14.3c-9.5 4-18.2 5.7-29.5 5.7-17.9 0-32.1-5-43.6-15.4-9.7-8.6-13-8.3-20.9 1.7a47 47 0 0 1-23.9 15.8 71.7 71.7 0 0 1-22.2 2.7c-17.4.5-23-.3-36.2-5.4-9.6-3.7-12-3.6-18.8.9-10.1 6.6-20.6 8.1-51.4 7.4-30.2-.6-82.4-4.3-90.1-6.3a55.8 55.8 0 0 1-33.6-24.7c-5-7.6-7.9-16.3-9.1-27.8-1.3-13.2-4.3-16.7-12.5-14.9-2.1.5-9.6 1.2-16.7 1.6-16.6.9-17.7 1.6-17.7 11.4 0 28.3-11.8 42-41.8 48.7-12 2.7-37.1 2.4-48.2-.5a64 64 0 0 1-24-11c-5.7-5.1-9.3-4.5-16.5 2.8-7 7-12.3 9.8-22.5 11.6-17.5 3.1-44.6-.1-59.6-7.2-6.6-3.1-9.3-3-13.8.5-5.2 4.2-13.9 5.4-40.1 5.5-21.7.1-22.1.1-29.9-2.7-9.6-3.4-17.1-6.9-22.1-10.3-6.9-4.6-8.5-4.4-15.8 2.4a40.1 40.1 0 0 1-19.7 11.5c-20.6 5.8-42 7.3-76 5.2-29.3-1.7-42.2-3.5-52.9-7.2a58.5 58.5 0 0 1-20.5-10.4c-2.7-2.2-6-3.9-7.3-3.9-1.5 0-4.3 1.8-7.6 4.9-8.8 8.2-13.2 9.6-34.7 11.1-30.2 2.2-48.2-1.7-60.7-13.3-6.6-6.1-9.8-5.8-16.4 1.6-7.4 8.3-10.9 9.2-36.4 9.1-23.4 0-30.8-1.5-46.1-8.9-12.1-6-13.6-5.9-18.2 1.6-4.2 6.8-15.1 9.2-43.2 9.3-25.1 0-39.4-3.1-49.8-11-1.8-1.5-5-2.8-7-3.1-4.1-.5-4.9.1-10.5 7.7-5.1 6.9-7 7.3-35.2 6.7-30-.6-37.7-2.1-54.5-10.1-4.1-2-8.5-3.6-9.8-3.6-1.4 0-4 1.7-6.6 4.4-6.6 6.7-13.5 8.9-27.1 8.9-24.3-.1-52.9-9.3-64.6-20.8a25 25 0 0 1-8.4-14.8c-.8-4.8-4.1-7.2-8.9-6.3-5.1 1-7.5 3.5-9 9.4a44 44 0 0 1-13.4 21c-11.6 11.1-23.9 14.8-46.6 13.9-15.2-.5-18.2-1.4-27.2-8.1-9.5-7-13.1-7.3-22.1-1.4-11.4 7.6-14.1 8.2-34.2 8.3-15.9 0-18.3-.2-24.9-2.4-8-2.6-14.7-7.7-19-14.5-8.1-12.9-10.7-20.6-24.2-71.1-5.7-21.2-7.8-29.8-14.4-60l-5.6-24c-7.7-31.2-5.3-46.5 9.3-60.1 11.6-10.9 23.3-14.4 47.8-14.4 17.9 0 23.2 1.2 33.3 7.3 4.4 2.7 9.2 5 10.6 5 1.6 0 5.4-2 9.6-5.1 10.8-7.9 16.7-10.5 24.9-11a56 56 0 0 1 36.4 11.7c8.3 5.7 10.9 5.5 19.9-1.3 9-6.7 13.5-8 25.5-7.4 16.7 1 29.5 7.2 41.2 20.2 5.7 6.3 6.7 7 10.1 7 2.9 0 4.2-.7 6.6-3.5 5.6-6.7 14.4-15.1 18.8-18 6.4-4.2 13-5.9 23.5-5.9 17.5 0 28.8 6.3 41.8 23.3 2.3 3.1 3.4 3.7 6.4 3.7 3.1 0 4.7-1 12.2-8.3a53.4 53.4 0 0 1 41-16.7c19.1 0 29.2 4 43.4 17 11.7 10.7 14 10.7 24.1.5a58 58 0 0 1 46.1-17.3c10.1.4 11.6.7 18.5 4 4.1 2 10.2 6 13.4 8.8 7.3 6.4 8.7 6.3 20.6-1.1 17.3-10.7 28.1-14.2 43.5-14.2 8.5.1 11.2.5 18.2 3a74.3 74.3 0 0 1 26 15.6c7.4 6.6 10.3 8 13.7 6.7 2.6-1 6.2-5.1 7.2-8.3 2-6.6 7.9-10.7 21.3-14.7 6.4-2 8.8-2.2 18.5-1.7 26.4 1.3 41.2 8 51.1 23.4 5.5 8.5 9.7 8.3 22.5-.8 21.1-15.2 38.7-19.9 74.1-19.9 31.6 0 50.8 5 72.1 18.9 5.8 3.8 11.6 7.2 12.7 7.6 3.9 1.2 7.9-.6 19.2-8.5a91.3 91.3 0 0 1 35.2-16.3c8.4-1.9 12-2.1 40.2-2.1 28.1-.1 32.1.2 43 2.2 21.9 4.2 38.8 11.2 49.2 20.7 9 8 12 7.8 19.6-1.6 6.7-8.3 23.1-20.9 27.3-20.9.7 0 1.9 4.1 2.9 9.2 1.7 8.8 1.7 9.2.1 10.2-14.7 8.8-17.6 17.8-19.7 61.9-1.4 28.4.2 86.7 2.7 99.9 3.6 18.9 14 35.4 26.1 41.4 5.4 2.6 6.7 2.8 17.8 2.8 15.8.1 23.9-2.3 31.4-9 5.3-4.7 7-7.3 10.5-15.4 1.6-3.8 1.9-7.3 2.1-23.5l.3-19 21.8-.6c27.7-.8 35.2-2.7 43.5-11a28.3 28.3 0 0 0-8.3-46.1c-10.2-5-17.3-6.1-41.3-6.2l-22-.1-.3-2.6-.3-2.7 17.3-.6c34.9-1.4 47.9-3.4 60.3-9 9.3-4.3 14.2-8.8 17.7-16.1 5.1-10.9 3.6-26-3.8-36.6-5.8-8.4-14.6-12-35.9-14.8l-13-1.7-.3-9.2-.3-9.2h4.1c4.7 0 22.2 2.5 28.9 4.2a58.5 58.5 0 0 1 20.6 10.3 23 23 0 0 0 8.4 4.5c1.3 0 7.4-2.4 13.5-5.4a71.3 71.3 0 0 1 36.6-8.9c21-.1 34.2 6.4 44.1 21.6 8.4 13 9.9 22.4 10.8 67l.6 34.9 2.8 2.4c2.5 2.1 3.8 2.4 11.5 2.4 11.7 0 20.8 2.1 30.4 7 15.2 7.7 16.1 6.8 24.3-25.3 8-31.5 17.1-55.3 26.9-71.1a108 108 0 0 1 24.9-26.8c20.4-13.3 53.8-16.7 73.1-7.4a91.2 91.2 0 0 1 30.1 24.1 163 163 0 0 1 18.8 36.9c.8 5.1 3.2 7.6 7.3 7.6 3.9 0 5.4-1.8 8-9.5 2.3-6.8 8.9-19.8 13.6-26.7 14.5-21.4 46.2-38.4 77.8-41.8 8.6-1 28.2-.3 38.5 1.2zm-549 32.8c18 1.6 25 3.5 29.4 7.9a22 22 0 0 1 5 21.8c-2.6 6.9-11.3 12.3-24.4 14.9-3.8.8-19.4 2.1-34.5 2.9-15.1.9-29.2 2-31.3 2.6-6.9 1.9-9.3 9.5-6.6 21.7a14 14 0 0 0 4 7.8l3 2.9 26.7.7c27.6.6 30.9 1 37.9 4.6 5.6 2.9 8.3 6.9 8.3 12.5 0 5.9-3.2 10.5-9.4 13.6-4.7 2.4-6.2 2.5-30.5 3.3-14 .4-26.7 1.2-28.1 1.8a11 11 0 0 0-4.4 4.2c-1.7 2.7-1.8 4.6-1.2 19.2.8 17.7 0 24.4-3.7 31.6-4.1 8.1-11 11.1-25.5 11.2-14.1.1-19.7-4.1-26.3-19.7-5.8-13.4-6.2-18.9-6.3-75.5-.1-44.3.1-53 1.6-62.1 1.9-11.7 3.1-15.4 5.6-18.3 4.8-5.3 22.2-9.1 51.2-11 9.3-.6 46.8.3 59.5 1.4z"/>
      <path d="M2703.4 660.5c-19.1 2.9-37 10.7-47 20.3-15.7 15.1-18.6 38.2-7.5 60.7 5.4 10.9 13.2 19.8 29.1 33.3 18.1 15.4 21.5 19.4 20.8 25-.5 4.4-5.9 4.2-15.8-.7-13.7-6.7-21.9-6.4-30.3 1-11.7 10.2-18.6 41-12.3 54.5 6.1 13.2 24.4 19.6 55.6 19.7 42.2 0 71.2-12 81.5-33.9a74 74 0 0 0 5.5-25.4c0-8-2.8-19-7.1-27.7-5.3-10.6-13.3-18.8-28.1-28.6-15.1-10-20.7-16.3-22.4-25.3-1.6-8.4 6.4-9.8 13.1-2.4 4.5 5 9.2 6.5 21 6.5 12.5 0 16.6-1.5 22.3-8 6.7-7.5 7.7-10.8 7.7-24-.1-11.2-.2-12.4-3-17.9a51.1 51.1 0 0 0-32.5-24.9 136.5 136.5 0 0 0-50.6-2.2zm47.1 16.2a37 37 0 0 1 16.8 9.2c6.4 6 8.2 10.4 8.1 19.6 0 13.4-4 18-15.4 17.9-5.8 0-7-.4-11.1-3.5-19.9-15.2-39.2-8.4-37.7 13.4.8 13 9.8 25 27.2 36.5 16.9 11.1 24.3 19.6 28 32.1 2 7 2.1 19.9 0 27.1-3.3 11.7-13.5 20.4-29.9 25.6-27.1 8.6-71.2 6.6-81-3.6-4.9-5.2-4.5-14.8 1.3-30.5 4.7-12.7 8.2-13.9 21.5-7.6 13.4 6.5 21.8 6.4 29.2-.1 4.6-4 6.9-10.4 6-16.5-1.4-9.6-5.5-14.8-23.4-30.1a363 363 0 0 1-17.4-15.6c-18.7-20.2-21.3-45.7-6.1-59.7a70.6 70.6 0 0 1 30.9-14.5c8.3-2.2 10.4-2.4 28-2 15.5.3 20.1.7 25 2.3zM2531 660.6l-9.5 1.5c-27.6 4.3-46.4 15.7-59.8 36.6a119 119 0 0 0-16.9 40.1c-2.9 12-3.1 38.2-.4 52.7a144.9 144.9 0 0 0 20.1 52c13.9 19.5 36.7 29.6 73.4 32.4a209 209 0 0 0 45.4-.4c35.6-3.4 43.7-8.8 46.9-31.5 1.5-10.5-.4-54-2.7-61.7a32 32 0 0 0-13.7-16.4c-15-7.7-43-8.7-53.8-2.1-7.1 4.4-9.1 9-9.9 23l-.6 11.7-3.4-.3c-13-1.3-24.2-15.2-24.2-30.1 0-7.1 1.7-11.1 7-16.6a41.4 41.4 0 0 1 30.2-12.5c3 0 7.8-.7 10.5-1.5s6.5-1.5 8.4-1.5c1.9 0 5.8-.6 8.5-1.4 11.4-3 19.8-9.4 24.2-18.4 2.4-4.9 2.8-6.9 2.8-14.2-.1-7.2-.5-9.3-2.8-13.7a44.7 44.7 0 0 0-19-17.9 72.3 72.3 0 0 0-20.7-7.5c-7.3-1.9-33.7-3.4-40-2.3zm32 15.5c17.5 3.3 30.4 10.2 34.7 18.3.8 1.6 1.6 5 1.6 7.5.1 10.4-8.5 18.4-20.8 19.4-2.8.2-8.8 1.1-13.5 2-4.7.9-11.9 2-16.1 2.5a52.1 52.1 0 0 0-38.4 26.7c-2.6 5.3-2.9 7.1-2.9 15.5 0 8.1.4 10.5 2.8 16.5a41 41 0 0 0 39.3 28.3l9.2.5 3-3.1 3.1-3v-13.7c0-7.5.4-14.5 1-15.5 1.5-2.8 6.4-4 16-4 9.3 0 22.1 2.7 26.5 5.6 1.4.9 3.3 3 4.1 4.5 2 4 3.4 20.2 3.5 41.7.1 28.2-1.2 30.4-20.3 33.9a369 369 0 0 1-74.3 0c-17.9-3.5-30.8-9.4-39.4-18-14.7-14.5-25.4-46.7-25.5-76.2-.1-33.8 16.2-67.4 38.6-79.8a105 105 0 0 1 40.8-11.1c5-.6 20.5.3 27 1.5zM839.9 663a42 42 0 0 0-29.2 23.9l-4.2 8.1c-.4.6-2.4-2.4-4.4-6.7-4.3-8.9-7.9-13.5-13-16.7a72.5 72.5 0 0 0-35.9-7.7c-12.9-.1-19.3 1.7-25.6 7.2-13.3 11.7-13.7 28.4-1.8 75.4 4 15.7 22.9 84.3 26.2 95 6 19.5 12.5 29.2 23.5 34.5 4.5 2.3 6.2 2.5 18 2.5 16.4 0 22.4-1.7 29.9-8.6a60.8 60.8 0 0 0 13.8-22.9l1.5-3.5 4 8.7a39.1 39.1 0 0 0 37.8 24.8c17.7 0 30.9-8.2 38.1-23.4a335 335 0 0 0 13.9-45.6l10.2-37c13.5-47.7 17-64.7 16.1-77.7-1.3-17.7-14.2-28.5-36.4-30.4-20.3-1.8-28.5 2.3-35.7 18l-3.4 7.3-2.4-4.8a45.2 45.2 0 0 0-18.1-17.9c-6-2.7-16-3.8-22.9-2.5zm15.8 15.1c3.3 1.2 9.6 7.1 12.4 11.5 2.3 3.7 5.4 21.7 6.4 36.7.8 11.6 1.8 14.1 6.6 15.2 1.9.5 3.4 0 5.4-1.7 2.5-2.2 2.9-3.3 3.6-11.4.9-10.6 4.9-29.8 7.7-37.3 2.6-6.8 6-11.7 9-13a43.6 43.6 0 0 1 21.9.8c14.4 4.4 17.1 8.9 15.2 25.7-1.2 10.7-6 30.7-13.4 55.6-2.9 10-8.1 29-11.5 42.1-7.2 28.3-12.2 43.8-15.6 49-9.8 14.9-34.4 15.3-44.3.8a86.8 86.8 0 0 1-10.1-28.3c-1.1-6.1-1.6-7.2-5.3-10.3-8.5-7.3-12.2-4.1-16.7 14.5-5.3 21.9-10.2 31.3-18.1 34.4a51.9 51.9 0 0 1-23.7 1.7c-2.4-.7-6.1-2.8-8.2-4.7-6.7-6.1-7.6-8.5-22.2-61.9a2419 2419 0 0 0-9.3-33.5c-10.3-36.1-15-61.6-13.4-71.8 1.4-9.1 5.3-12.6 15.2-13.8 8.1-1 25.2 1.3 31.2 4.2 8.9 4.2 14.3 16.2 17.4 38.2 2.1 14.9 3.3 17.2 9.1 17.2 3.9 0 6.5-3.6 7.9-11.2 3.4-17.6 10.5-36.1 16.5-42.7 5.3-5.9 18.6-8.9 26.3-6zM1428.1 663.1a30.2 30.2 0 0 0-15.6 9.1c-5.9 7-8.2 16.8-8.8 36.5-.2 6.8-.6 12.5-.9 12.8-.3.3-2.9-3.2-5.8-7.7-12.5-19.6-27.5-36-39.2-43a53.9 53.9 0 0 0-53.2-1.2 35.2 35.2 0 0 0-20.2 23.6c-2.8 9.7-3.8 49-2.7 97.3 1 43.1 1.1 44.1 3.5 51.1a41.8 41.8 0 0 0 10.2 18 47.5 47.5 0 0 0 20.9 14c7.9 3.2 9.7 3.5 18.2 3.5 8.1.1 10.2-.3 14.7-2.5 2.9-1.3 6-3.1 6.8-3.8 2.8-2.3 6.7-8.2 7.9-11.8a90 90 0 0 0 2.2-30c-.5-5.8-.7-10.6-.6-10.8.2-.2 2.7 3.2 5.6 7.5 15.9 23.6 30 39.8 38.7 44.2 8.5 4.3 15.1 5.6 30.2 5.6 11.3 0 15.7-.4 20-1.8 11.5-3.8 18.4-11.4 23.2-25.7 2.1-6.2 2.2-7.9 2-37.5-.2-17.1.2-43.4.9-58.5 2.2-56-3.4-75.4-24.5-85a56.7 56.7 0 0 0-33.5-3.9zm-89.6 15.4c10.4 1.7 24.3 12.7 36.6 29.1a300.9 300.9 0 0 1 25.2 41.6c5.7 12 10.9 14.4 16.1 7.5 1.7-2.4 1.9-4.3 1.7-28.4-.3-45.6 2-51.3 20.7-51.3 11.1 0 17.3 2.1 23.2 7.8 9.4 9.1 10 15.2 9.4 90.2-.5 60.4-1 68.3-4.5 75.1-4.3 8.4-11 11.3-26.9 11.3-12.6 0-20.3-2-27.4-7.2-9-6.6-28.1-32.7-43.2-59a92 92 0 0 0-8.3-12.8c-3.2-3.2-6.6-3-10.2.5-3.6 3.6-3.6 5-.9 29.1 3.4 30.4 2.2 43.6-4.3 48.4-4.6 3.4-14.7 3.4-23.3.1-17.3-6.9-23.4-15.6-25.4-36.5a1561 1561 0 0 1 .1-118.6c.6-4.9 1.5-9.9 2-11 1.4-3.9 7.1-9.5 12.3-12.1a53.7 53.7 0 0 1 21.1-4.7l6 .9zM1116.2 665a59.6 59.6 0 0 0-30 23.7c-10.7 15.8-13.8 33.9-16.4 98.3-2.1 51.8-1.6 62.1 3.5 72.5a29 29 0 0 0 11.9 12.6c10.4 5.3 38.4 6.4 50.3 1.9 7.1-2.7 12.8-8 14.5-13.5.8-2.3 1.5-11.7 1.7-22.3.3-10 .8-18.2 1.2-18.2.4 0 1.5 1.5 2.6 3.2 4.7 8.2 16.5 22.9 26.3 32.7 16 16.1 25.3 20.2 47.2 20.2 26.8.2 37.3-8.5 42-34.6 1.3-7.1 3.4-112 2.5-125-1.9-26.7-9.9-42.7-25.4-50.2-5.1-2.6-6.5-2.8-17.1-2.8-9.8 0-12.2.4-16.4 2.3-7.5 3.5-12 7.5-15.7 14.4l-3.4 6.3-.3 19.7c-.2 10.9-.7 19.8-1 19.8-.4-.1-4-5.5-8.1-12.2-15-24.6-30.2-41.8-41.9-47.5-7.6-3.6-20-4.2-28-1.3zm21.4 14.4c12.9 6 30.9 30 49.4 65.6 9.5 18.4 11.3 20.4 17 18 5.7-2.4 5.9-4 5.3-37.5-.5-26.5-.4-30.7 1.1-35.1a17.2 17.2 0 0 1 12.1-12 25.7 25.7 0 0 1 17.9.6c9 3.4 14.3 11.2 17.3 25.6 1.8 9.1 1.9 30.9.4 94.9-.8 34.3-1.1 39.8-2.9 45.9-3.7 12.7-7.5 15.5-22 16.3-22.3 1.2-32.1-3.7-50.3-25.6-9.6-11.4-14-18-23.4-34.8a74.7 74.7 0 0 0-9.6-14.5c-2.4-1.8-2.9-1.8-6.2-.5-6.1 2.6-6.2 3.1-6.2 35.2 0 15.9-.4 30.6-.9 32.6-1 4.7-4.5 6.7-14.3 8.1-6.3.9-9.8.8-18.5-.4-12.8-1.8-15.9-3.7-18.2-10.6-2.7-8-2.9-14.7-1.7-50.8 1.4-41.9 3.4-69.6 6.1-82.4 4.1-20 14.5-33.1 30.9-39.2a19.2 19.2 0 0 1 16.7.6zM1011.8 666c-15.1 2.6-26.4 13.5-31 29.9-2.8 10.1-4.1 39.1-4.2 91.1-.1 49.2.4 56.6 4.7 68a31 31 0 0 0 18.7 17.8c18.8 6.2 37 4.7 44.6-3.5 7.5-8.1 9.4-17.1 10.1-48.3.5-22.2-1.9-108.5-3.3-118-3-20.9-7.8-30-18.6-35.4-5.5-2.8-11.4-3.2-21-1.6zm17.6 16.7c6.4 6.4 8 16.9 9.8 65.3 2.5 68.8 1.7 98-3.1 108-2.5 5.3-5.1 6.2-16.7 5.7-16-.7-22.8-4.8-25.7-15.6-2.5-9-4.1-40.8-3.3-66.6 2.5-81.9 3-85.6 12.5-93.6 5.1-4.4 9.2-5.7 17.2-5.8 5.9-.1 6.9.2 9.3 2.6z"/>
      <path d="M15625 8775c-193-38-326-109-435-232-201-228-280-517-282-1036 0-192 10-272 54-397 81-229 257-379 523-443 138-34 232-42 480-42 238 0 255 2 350 27 179 47 285 124 353 255 63 123 86 230 87 403 0 127-3 151-21 190-75 161-256 194-433 80-68-44-93-67-171-159-60-70-130-121-167-121-32 0-93 26-122 53-37 34-71 115-71 170 0 132 65 156 515 192 105 8 215 17 245 20 76 7 148 45 184 96 27 39 30 52 40 182 9 120 8 151-7 221-26 127-75 217-172 313-70 69-99 89-186 132-107 52-212 83-334 101-98 14-347 11-430-5zm470-149c169-34 319-108 400-198 58-65 81-109 106-206 17-64 19-95 14-182-4-60-13-114-21-127-15-25-87-43-168-43-71 0-447-37-516-51-132-27-227-85-257-158-72-170 6-381 172-469 43-23 62-27 135-27 64 0 94 5 120 19 19 10 91 75 160 145 134 135 189 172 261 173 90 1 125-68 114-227-11-168-60-309-131-379-85-84-217-123-454-133-298-12-581 38-719 127-219 142-283 349-252 821 21 320 62 480 166 640 142 219 334 305 660 294 77-3 172-11 210-19z" style="paint-order:fill;fill-rule:evenodd" transform="matrix(.1 0 0 -.1 0 1545)"/>
      <path d="M1587.4 709.1a31.3 31.3 0 0 0-14.5 13.7 33.2 33.2 0 0 0-2.6 10.2l-.5 5.6 4.4 3.6c5.7 4.7 8 5.2 17 3.9 10.6-1.6 16.5-4 20.3-8.2 6.2-6.9 5.5-16-2-23.4-5.9-6-13.7-7.9-22.1-5.4zm11.8 15.6c2.7 2.4 2.2 4-1.4 5.1-5 1.6-10.7 2.4-11.8 1.7-1.3-.8 1.4-6 3.7-7.4 2.7-1.6 7.4-1.3 9.5.6zM1733.6 667.5c-22.5 3.7-36.2 11.6-41.7 24-3.9 9.1-4.4 17.4-4.3 78 .2 64.6 1 77.1 5.9 87.2 6.5 13.1 23.5 20.3 49 20.6 10.5.2 12.5-.1 16-1.9 8.1-4.4 11.5-11.2 12.4-25.2.3-5.3 1.1-9.7 1.6-9.9.6-.1 2.3 2 3.9 4.9 4 7.1 16.7 19.5 24.6 24.1 23.4 13.6 51.2 11 59.4-5.5 7.7-15.3-1.3-39.6-23.1-62.8l-8.8-9.3 2.5-1.6c5.7-3.8 17.7-14.1 20.6-17.7a50.8 50.8 0 0 0 11.8-33.4 64 64 0 0 0-39.8-60 126 126 0 0 0-35.1-10c-16-2.8-42.7-3.5-54.9-1.5zm33.5 13.6c34.3 2.7 57.9 11.1 70 24.7a48.8 48.8 0 0 1 8.6 48.5 61.4 61.4 0 0 1-20.7 22.2c-10.1 7.5-12 9.9-12 15.2 0 4.2 2.9 8.3 13.5 19 15.3 15.6 25.5 37.3 21.4 45.9-2.2 4.6-8 6.9-17.4 6.8-10-.1-18-3.1-28-10.7-9.1-6.8-15-15.7-24.5-36.7-4.1-9.1-8.5-17.5-9.7-18.8-2.9-2.9-6.8-2.8-9.9.3l-2.6 2.6.7 24.7c.7 25.7.1 32.8-3.2 36.4-3.1 3.4-26.4 1.7-36.9-2.7a17.7 17.7 0 0 1-10.5-10.1c-2.7-6-4.2-37.5-4.2-86.4 0-54.6 1.1-64.5 8.2-70.8 5.2-4.7 17.2-8.5 32.1-10.1 10.8-1.2 10.4-1.2 25.1 0z"/>
      <path d="M1761.5 730.4a28 28 0 0 0-6.4 4.5l-3.3 3.1.7 9.7c1.3 17.3 4.4 21.3 16.5 21.3 8.7 0 15.4-2.4 20.1-7.1 4.3-4.3 5.5-8.5 4.5-15.4-1-6-7.8-13.7-14.3-15.9-5.6-1.9-13.7-2-17.8-.2zm16 16.1c1.4 1.3 2.5 2.9 2.5 3.4 0 1.9-5 4.4-8.8 4.5l-3.7.1-.3-5.3-.3-5.2h4.1c3 0 4.7.6 6.5 2.5zM2341.6 667.6c-29.2 5.8-48.2 22.5-61.1 53.8-6.2 15.1-7.8 21.1-20.9 76.6-9.4 39.9-10 43.3-9.2 51.4 1 12.3 3.9 19.4 10.2 25 7.3 6.6 11.6 8.1 23.4 8.1 5.8 0 12.3-.6 14.5-1.3 18.6-6 25.2-13 31.5-33.2l2.7-8.5h22.5l2.4 8.3c5.6 19.4 14.4 29.2 30.2 33.8a59.7 59.7 0 0 0 28.2-.1c15.5-5 24.4-19.6 22.6-37a729 729 0 0 0-23.3-103 240.7 240.7 0 0 0-24.9-55.6c-12-16.5-27.9-22.5-48.8-18.3zm26 16.2c6.5 3.3 11.9 10.5 19.4 25.7 11.1 22.5 21.1 54.6 30 96.5 7 32.7 8.4 45.1 5.9 51.7-5.7 15.1-35.5 15.1-45.6 0-2.9-4.3-4.4-8.5-8.4-22.9-2.5-9.2-6.5-10.6-29.3-9.8l-14.8.5-2.7 3.2a30.4 30.4 0 0 0-4.4 10 57.2 57.2 0 0 1-9.3 21.4c-3.4 3.6-10.1 6.4-19.1 7.9-15.1 2.7-22.4-3.2-24.7-19.6-.6-4.5 1.6-16 8.9-46.4l5.6-23.5c7.1-31 10.8-43.2 16.9-56.1 8.3-18 19.9-30.7 32.7-36.1 13.6-5.6 30.7-6.8 38.9-2.5z"/>
      <path d="M2337.8 752.5c-1.4.8-3.6 3-4.7 4.8-4.5 7.4-8.7 32.8-6.2 37.5 1.6 3 7.8 4.5 19.1 4.6 11.2.1 14.1-1.2 16-7 2.5-7.4-1.4-25.8-7.2-34.2-4.5-6.5-11.2-8.8-17-5.7zm8.8 22.6c.8 2.4 1.4 5.6 1.4 7.1 0 2.5-.3 2.8-3.5 2.8-2 0-3.5-.5-3.5-1.2 0-3.9 2.4-13.8 3.3-13.5.5.1 1.6 2.3 2.3 4.8zM2109.7 668c-16.9 4.3-27.5 18-32.9 42.5-1.7 8.1-2 15.2-2.8 71-.7 42.7-.6 63.8.1 67.9 2.5 14.4 11.6 24 26.4 28.2 4.9 1.3 11.6 1.7 36.5 1.9 16.8.1 37.9.6 47 1 26.3 1.2 37.1-1.3 45.4-10.5 10-11.1 12.3-32.2 5.6-50.3a37.7 37.7 0 0 0-26.5-23.2c-7.8-2-24.2-3.5-38.7-3.5h-11.6l-.6-8.3c-.3-4.5-.8-21.9-1-38.7-.7-41.3-2.6-54.7-9.4-64.5-6.9-9.9-25.3-16.5-37.5-13.5zm16.5 15.6c13.6 5.3 15.4 13.5 16.7 78.9.6 27.9 1.2 39.8 2.1 41.6 2.2 4.6 4.7 5.3 15.2 4 6.8-.8 13.2-.9 23.6-.1 21 1.5 25.7 2.8 32.2 8.6 5.8 5.2 8.4 14.1 7.8 26.8-.5 11.6-3.3 17.2-10.3 20.6-5.2 2.5-6.1 2.5-68.5 1.2-38.3-.8-39.7-.9-44.8-3.1-9.9-4.4-12.5-10.1-12.5-27.6 0-103.4.7-117.2 7.2-134.6 5.5-14.6 18.4-21.2 31.3-16.3z"/>
      <path d="M1974.1 639.7c8 1.3 22.4-28.6 23.2-27.7 1.7 1.7 3.6 45.3 3 47-1 3.3-13.7-.3-40 1.2-28.1 1.5-39.3 5.2-39.8 3.8-2.2-6.9-7.8-40.6-7.8-40.6s19 19.3 24.9 19.8c7.2.6 16.1-29.8 18.4-30.4.8-.2 12.8 26 18.1 27Z" style="stroke-width:2px;fill:#f2b645"/>
    </symbol>
</svg>